<svg width="200" height="40" viewBox="0 0 200 40" fill="none" xmlns="http://www.w3.org/2000/svg">
<path d="M48.0754 23.2571C47.1557 23.5492 46.1998 23.7121 45.2353 23.7411C43.0722 23.7411 42.6245 21.8412 42.6245 20.2518C42.6245 17.7865 43.5171 16.5385 45.2828 16.5385C45.7801 16.5288 46.2756 16.6016 46.7491 16.754L48.3049 17.3808L48.3357 15.3353L48.1258 15.2458C47.0307 14.7784 45.8574 14.5212 44.6672 14.4874C41.4996 14.4874 39.4541 16.7568 39.4541 20.2686C39.4541 23.6264 41.4269 25.865 44.3734 25.865C45.6522 25.865 46.8302 25.5712 48.5707 24.8157L48.8506 24.6953L48.3972 23.1647L48.0754 23.2571Z" fill="#002C76"/>
<path d="M11.3684 17.585C12.7675 17.0114 13.4167 15.9732 13.4167 14.3111C13.4167 12.6937 12.65 11.4541 11.3124 10.914C10.375 10.5279 9.49919 10.4355 6.83529 10.4355H1.18848V12.0501L2.96255 12.3103V25.6439H7.4397C9.6419 25.6439 10.5681 25.5096 11.5643 25.0506C12.2905 24.7315 12.9053 24.2034 13.3304 23.5337C13.7554 22.8639 13.9715 22.0828 13.9512 21.2898C13.9512 19.3311 13.0697 18.1279 11.3572 17.585H11.3684ZM6.13293 12.3971H7.00598C8.17563 12.3971 9.09345 12.3971 9.65869 12.8784C9.85993 13.0747 10.0166 13.3119 10.118 13.5741C10.2194 13.8363 10.2631 14.1172 10.2463 14.3978C10.2463 15.9089 9.78461 16.5077 8.00774 16.684L6.72895 16.8211L6.14133 17.8033L6.13293 12.3971ZM9.77062 23.0975C9.05987 23.632 8.00494 23.6739 6.69258 23.6739H6.13293V18.6735L6.20848 18.6875H7.24662C8.3911 18.6875 9.30891 18.7239 9.89654 19.194C10.1535 19.4323 10.3547 19.7244 10.4858 20.0494C10.6169 20.3745 10.6746 20.7245 10.6549 21.0744C10.674 21.457 10.6041 21.8389 10.4507 22.1899C10.2972 22.541 10.0645 22.8517 9.77062 23.0975Z" fill="#002C76"/>
<path d="M100.475 17.585C101.874 17.0114 102.526 15.9732 102.526 14.3111C102.526 12.6937 101.759 11.4541 100.422 10.914C99.4872 10.5279 98.6057 10.4355 95.9446 10.4355H90.2978V12.0501L92.0719 12.3103V25.6439H96.549C98.7484 25.6439 99.6774 25.5096 100.674 25.0506C101.4 24.7314 102.014 24.2032 102.439 23.5334C102.863 22.8636 103.079 22.0826 103.058 21.2898C103.058 19.3311 102.176 18.1279 100.464 17.585H100.475ZM95.2311 12.3971H96.1069C97.271 12.3971 98.1916 12.3971 98.7568 12.8784C98.9612 13.0739 99.1205 13.3116 99.2234 13.575C99.3264 13.8384 99.3706 14.1212 99.3529 14.4034C99.3529 15.9145 98.8912 16.5133 97.1143 16.6896L95.8355 16.8267L95.2507 17.8089L95.2311 12.3971ZM98.8688 23.0975C98.1608 23.632 97.1031 23.6739 95.7907 23.6739H95.2311V18.6735L95.3038 18.6875H96.3448C97.4864 18.6875 98.4071 18.7239 98.9947 19.194C99.2525 19.4318 99.4544 19.7237 99.586 20.0489C99.7176 20.374 99.7756 20.7242 99.7558 21.0744C99.7747 21.4575 99.7041 21.8398 99.5497 22.191C99.3952 22.5421 99.1612 22.8525 98.866 23.0975" fill="#002C76"/>
<path d="M34.9546 14.4846C34.0312 14.4846 32.8531 14.812 31.51 15.3717C31.4932 15.1226 31.4484 14.5098 31.4484 14.5098L26.8761 15.089V16.6924H28.5551V25.6467H31.5576C31.5576 25.6467 31.5827 17.7362 31.5827 17.2828C32.3306 17.0181 33.1151 16.8709 33.9081 16.8463C34.3894 16.8463 34.7139 16.9359 34.9042 17.1261C35.184 17.406 35.184 17.9936 35.184 18.6568V25.6523H38.2117V18.4945C38.2117 16.8351 38.139 16.2923 37.6157 15.6179C37.0393 14.868 36.1438 14.4986 34.9546 14.4986" fill="#002C76"/>
<path d="M54.752 14.4874C51.3941 14.4874 49.2871 16.67 49.2871 20.1846C49.2871 23.6992 51.3298 25.8594 54.752 25.8594C58.1099 25.8594 60.2001 23.6768 60.2001 20.165C60.2001 16.6533 58.163 14.4874 54.752 14.4874ZM54.7352 23.8951C53.7558 23.8951 52.4603 23.5089 52.4603 20.1846C52.4603 16.9163 53.6215 16.477 54.752 16.477C55.7286 16.477 57.0298 16.8575 57.0298 20.165C57.0298 23.4725 55.8685 23.8951 54.7352 23.8951Z" fill="#002C76"/>
<path d="M133.709 14.4874C130.352 14.4874 128.247 16.67 128.247 20.1846C128.247 23.6992 130.29 25.8594 133.709 25.8594C137.067 25.8594 139.155 23.6768 139.155 20.165C139.155 16.6533 137.118 14.4874 133.709 14.4874ZM133.684 23.8951C132.708 23.8951 131.415 23.5089 131.415 20.1846C131.415 16.9163 132.573 16.477 133.709 16.477C134.686 16.477 135.984 16.8575 135.984 20.165C135.984 23.4725 134.823 23.8951 133.684 23.8951Z" fill="#002C76"/>
<path d="M146.394 23.5509L144.267 23.8726C143.794 23.8726 143.665 23.7495 143.59 23.632C143.514 23.5145 143.514 23.4501 143.514 22.6023C143.514 22.5099 143.514 17.2856 143.514 16.6924H146.52V14.8316H143.517V11.941L143.142 11.9718L140.481 12.1957V22.5491C140.481 23.6992 140.576 24.4295 141.069 25.0059C141.561 25.5824 142.233 25.8454 143.285 25.8454C144.41 25.8114 145.518 25.5674 146.553 25.1263L146.85 25.0087L146.394 23.5509Z" fill="#002C76"/>
<path d="M110 14.4874C106.642 14.4874 104.538 16.67 104.538 20.1846C104.538 23.6992 106.581 25.8594 110 25.8594C113.358 25.8594 115.443 23.6768 115.443 20.165C115.443 16.6533 113.411 14.4874 110 14.4874ZM109.978 23.8951C109.004 23.8951 107.706 23.5089 107.706 20.1846C107.706 16.9163 108.867 16.477 110 16.477C110.977 16.477 112.278 16.8575 112.278 20.165C112.278 23.4725 111.117 23.8951 109.978 23.8951Z" fill="#002C76"/>
<path d="M123.994 15.3632C123.273 14.9656 122.462 14.7586 121.638 14.7616C118.616 14.7616 116.472 17.1653 116.472 20.5372C116.472 23.7663 118.171 25.795 120.891 25.795C121.596 25.795 122.273 25.6075 123.91 24.9555V25.8258C123.91 27.709 123.227 28.2491 120.871 28.2491C119.653 28.235 118.44 28.0886 117.253 27.8125V29.6342C119.511 30.1323 120.446 30.275 121.596 30.275C123.059 30.275 124.316 30.0287 125.206 29.5474C126.526 28.8451 127.016 27.8517 127.016 25.9489V14.9043H123.994V15.3632ZM123.91 23.4529C123.448 23.5345 122.98 23.5775 122.511 23.5816C120.684 23.5816 119.682 22.4008 119.682 20.2238C119.682 17.9684 120.801 16.6644 122.788 16.6644C123.164 16.6619 123.538 16.6966 123.907 16.768L123.91 23.4529Z" fill="#002C76"/>
<path d="M25.3399 14.977H22.3962V15.4276C21.6898 15.0361 20.8953 14.831 20.0877 14.8315C17.1299 14.8315 15.0285 17.224 15.0285 20.5847C15.0285 23.7998 16.6906 25.823 19.3573 25.823C20.0457 25.823 20.9383 25.5096 22.3094 24.7233V25.7222H22.371L26.5683 25.2997V23.5032H25.3399V14.977ZM22.3934 23.5396C21.9194 23.6228 21.4392 23.6658 20.9579 23.6683C19.0915 23.6683 18.0701 22.4735 18.0701 20.2769C18.0701 17.9963 19.223 16.6756 21.2433 16.6756C21.6294 16.6733 22.0147 16.7099 22.3934 16.7847V23.5396Z" fill="#002C76"/>
<path d="M157.581 14.9771H154.618V15.4276C153.914 15.035 153.121 14.8298 152.315 14.8316C149.354 14.8316 147.256 17.224 147.256 20.5847C147.256 23.7998 148.918 25.823 151.582 25.823C152.27 25.823 153.163 25.5096 154.537 24.7233V25.7222L158.815 25.2913V23.4948H157.592L157.581 14.9771ZM154.632 23.5396C154.158 23.6229 153.677 23.666 153.196 23.6683C151.333 23.6683 150.308 22.4735 150.308 20.2769C150.308 17.9963 151.464 16.6756 153.482 16.6756C153.868 16.6735 154.253 16.71 154.632 16.7847V23.5396Z" fill="#002C76"/>
<path d="M156.199 12.246L155.48 9.94312L155.166 10.0746L150.446 11.9858L150.86 13.3597L156.199 12.246Z" fill="#002C76"/>
<path d="M74.6977 9.72485L74.5466 9.73884L74.1885 9.78082L70.1954 10.2901V11.636H71.6673V15.145C70.478 14.7449 68.8243 14.4007 67.302 14.9155C65.2118 15.6179 64.0309 17.5039 63.9722 20.2322C63.9134 22.703 65.1894 24.7373 67.2265 25.4061C68.7179 25.8958 70.7019 25.3445 71.8016 24.8185C71.8016 25.0311 71.838 25.7055 71.838 25.7055L75.8646 25.1738V23.8279H74.5886C74.5886 23.5481 74.7117 9.72485 74.7117 9.72485H74.6977ZM71.6841 23.4361C70.3241 23.8027 68.8159 24.0769 67.8421 22.9017C67.2825 22.2161 67.1593 21.1976 67.1593 20.1538C67.1593 20.0363 67.1593 19.916 67.1593 19.7956C67.1845 18.6484 67.4895 17.9152 68.0772 17.2549C69.0062 16.2055 70.5956 16.4154 71.754 16.9583C71.754 16.9583 71.6785 23.2179 71.6785 23.4361" fill="#002C76"/>
<path d="M81.8947 14.4818C81.2389 14.4527 80.5832 14.5408 79.9584 14.742C77.7366 15.4668 76.4802 17.4143 76.4158 20.2265C76.3543 22.7729 77.7114 24.866 79.8744 25.5431C81.7856 26.1532 84.5838 25.4928 86.3579 24.5246L86.4558 24.4742L85.9494 22.9324L84.956 23.2458C83.5177 23.6432 81.6709 24.3651 80.4788 23.0024C79.8381 22.2552 79.7513 21.1387 79.7457 20.2433L85.622 20.358H86.5034V20.2321C86.5258 19.9747 86.5398 19.7172 86.5398 19.471C86.5398 14.3643 82.0766 14.479 81.8808 14.4734L81.8947 14.4818ZM79.8157 18.7323C79.8464 18.542 79.9248 16.3398 81.8863 16.3398C83.8479 16.3398 83.9123 18.4916 83.9402 18.7323H79.8157Z" fill="#002C76"/>
<g clip-path="url(#clip0_9114_191618)">
<g clip-path="url(#clip1_9114_191618)">
<path d="M184.837 5.03006C184.848 5.03122 184.859 5.03007 184.87 5.0267C184.88 5.02332 184.89 5.01779 184.898 5.01047C184.906 5.00315 184.912 4.99419 184.917 4.98419C184.921 4.97418 184.924 4.96335 184.924 4.9524C184.924 4.94144 184.921 4.93061 184.917 4.92061C184.912 4.91061 184.906 4.90165 184.898 4.89433C184.89 4.887 184.88 4.88147 184.87 4.8781C184.859 4.87473 184.848 4.87358 184.837 4.87474C174.395 3.31632 166.814 10.7434 166.814 19.5209C166.814 27.3112 172.684 34.2197 181.205 34.2197C183.75 34.2197 186.503 33.5958 188.576 31.9865C189.147 31.5188 189.407 31.2591 189.615 30.4799C189.615 30.4799 190.03 28.8697 189.667 27.3639C189.615 27.1559 189.562 27.1559 189.355 27.2595C187.589 27.9351 184.529 28.6635 182.032 28.6635C175.229 28.6617 170.921 23.1046 170.921 17.2359C170.921 11.2111 176.476 4.66765 184.837 5.03006Z" fill="#CD3232"/>
<path d="M194.964 11.3665C194.964 6.27704 186.343 4.51065 180.682 5.96553C180.525 6.0173 180.578 6.12085 180.682 6.12085C184.525 5.70579 189.251 8.14697 189.251 11.1067C189.251 13.2364 186.758 14.3271 185.302 14.8984C185.199 14.9501 185.251 15.0546 185.354 15.0546C188.107 14.5869 190.548 14.7913 192.522 15.0028C192.729 15.0028 192.833 14.8984 192.989 14.7948C194.031 14.0674 194.964 13.0284 194.964 11.3665Z" fill="#FFBE00"/>
<path d="M176.579 18.4303C185.98 18.4303 190.602 23.5723 190.602 28.8724C190.602 33.2352 186.604 35.3131 183.175 35.78C183.155 35.78 183.135 35.7882 183.12 35.8028C183.106 35.8175 183.097 35.8373 183.097 35.8581C183.097 35.8788 183.106 35.8986 183.12 35.9133C183.135 35.9279 183.155 35.9361 183.175 35.9361C191.073 35.9361 197.77 31.8848 197.77 26.1715C197.77 23.3635 196.108 21.4453 194.394 19.7316C194.186 19.5236 194.131 19.5236 193.979 19.6271C193.044 20.251 192.005 21.4971 191.485 23.8865C191.485 23.9382 191.382 23.9382 191.382 23.8865C191.485 20.0948 193.875 17.6563 198.394 17.6563C198.497 17.6563 198.497 17.5528 198.394 17.501C191.849 14.4359 183.383 14.8001 176.579 18.332C176.476 18.3785 176.528 18.4303 176.579 18.4303Z" fill="#FFBE00"/>
</g>
</g>
<defs>
<clipPath id="clip0_9114_191618">
<rect width="31.9973" height="32" fill="white" transform="translate(166.814 4)"/>
</clipPath>
<clipPath id="clip1_9114_191618">
<rect width="31.6563" height="31.2667" fill="white" transform="translate(166.814 4.66675)"/>
</clipPath>
</defs>
</svg>
